<svg width="30" height="31" viewBox="0 0 30 31" fill="none" xmlns="http://www.w3.org/2000/svg">
<path d="M27.5 14.25V11.75C27.5 5.5 25 3 18.75 3H11.25C5 3 2.5 5.5 2.5 11.75V19.25C2.5 25.5 5 28 11.25 28H12.5" stroke="#007566" stroke-width="1.5" stroke-linecap="round" stroke-linejoin="round"/>
<path d="M2.5376 11.125H27.5001" stroke="#007566" stroke-width="1.5" stroke-linecap="round" stroke-linejoin="round"/>
<path d="M2.5376 19.875H15.0001" stroke="#007566" stroke-width="1.5" stroke-linecap="round" stroke-linejoin="round"/>
<path d="M10.6377 27.9875V3.01251" stroke="#007566" stroke-width="1.5" stroke-linecap="round" stroke-linejoin="round"/>
<path d="M19.3877 15.4875V3.01251" stroke="#007566" stroke-width="1.5" stroke-linecap="round" stroke-linejoin="round"/>
<path d="M23.4125 18.8376L18.2251 24.025C18.0251 24.225 17.8375 24.6126 17.7875 24.8876L17.5 26.875C17.4 27.5875 17.9001 28.1 18.6126 27.9875L20.6 27.7001C20.875 27.6626 21.2625 27.4626 21.4625 27.2626L26.65 22.0751C27.5375 21.1876 27.9625 20.1376 26.65 18.8251C25.35 17.5251 24.3125 17.9376 23.4125 18.8376Z" stroke="#007566" stroke-width="1.5" stroke-miterlimit="10" stroke-linecap="round" stroke-linejoin="round"/>
<path d="M22.6753 19.575C23.1128 21.15 24.3503 22.375 25.9253 22.825" stroke="#007566" stroke-width="1.5" stroke-miterlimit="10" stroke-linecap="round" stroke-linejoin="round"/>
</svg>
