<svg width="30" height="31" viewBox="0 0 30 31" fill="none" xmlns="http://www.w3.org/2000/svg">
<path d="M18.7876 13.9625L25.8626 9.225C26.5751 8.75 26.7626 7.775 26.2876 7.075L24.0126 3.68747C23.5376 2.97497 22.5626 2.78748 21.8626 3.26248L14.7876 7.99999L18.7876 13.9625Z" stroke="#0EFFDF" stroke-width="1.5" stroke-linecap="round" stroke-linejoin="round"/>
<path d="M15.2177 8.59903L9.24561 12.5989L12.4455 17.3766L18.4176 13.3767L15.2177 8.59903Z" stroke="#0EFFDF" stroke-width="1.5" stroke-linecap="round" stroke-linejoin="round"/>
<path d="M7.28768 20.375L12.2252 17.075L9.42517 12.9L4.48767 16.2C3.91267 16.5875 3.76267 17.3625 4.15017 17.9375L5.56267 20.0375C5.93767 20.6 6.71268 20.75 7.28768 20.375Z" stroke="#0EFFDF" stroke-width="1.5" stroke-linecap="round" stroke-linejoin="round"/>
<path d="M15.0627 15.75L9.4502 28" stroke="#0EFFDF" stroke-width="1.5" stroke-linecap="round" stroke-linejoin="round"/>
<path d="M15 15.75L20.55 28" stroke="#0EFFDF" stroke-width="1.5" stroke-linecap="round" stroke-linejoin="round"/>
</svg>
