<svg width="28" height="28" viewBox="0 0 28 28" fill="none" xmlns="http://www.w3.org/2000/svg">
<path d="M10.0217 15.7617L17.99 20.405M17.9783 7.595L10.0217 12.2383M24.5 5.83333C24.5 7.76633 22.933 9.33333 21 9.33333C19.067 9.33333 17.5 7.76633 17.5 5.83333C17.5 3.90034 19.067 2.33333 21 2.33333C22.933 2.33333 24.5 3.90034 24.5 5.83333ZM10.5 14C10.5 15.933 8.933 17.5 7 17.5C5.067 17.5 3.5 15.933 3.5 14C3.5 12.067 5.067 10.5 7 10.5C8.933 10.5 10.5 12.067 10.5 14ZM24.5 22.1667C24.5 24.0997 22.933 25.6667 21 25.6667C19.067 25.6667 17.5 24.0997 17.5 22.1667C17.5 20.2337 19.067 18.6667 21 18.6667C22.933 18.6667 24.5 20.2337 24.5 22.1667Z" stroke="#0EFFDF" stroke-width="2.5" stroke-linecap="round" stroke-linejoin="round"/>
</svg>
