<svg width="30" height="31" viewBox="0 0 30 31" fill="none" xmlns="http://www.w3.org/2000/svg">
<path d="M15 28H21.25C25 28 27.5 25.5 27.5 21.75V15.5C27.5 12.125 25.375 9.625 22.25 9.25C22 9.25 21.625 9.25 21.25 9.25H8.75C8.375 9.25 8.125 9.24997 7.75 9.37497C4.5 9.74997 2.5 12.125 2.5 15.5C2.5 15.875 2.5 16.375 2.5 16.75" stroke="#007566" stroke-width="1.5" stroke-linecap="round" stroke-linejoin="round"/>
<path d="M22.25 9.25C22 9.25 21.625 9.25 21.25 9.25H8.75C8.375 9.25 8.125 9.24997 7.75 9.37497C7.875 8.99997 8.12501 8.74998 8.50001 8.37498L12.5 4.25C14.25 2.5 17 2.5 18.75 4.25L21 6.49998C21.75 7.24998 22.125 8.25 22.25 9.25Z" stroke="#007566" stroke-width="1.5" stroke-linecap="round" stroke-linejoin="round"/>
<path d="M27.5 16.125H23.75C22.375 16.125 21.25 17.25 21.25 18.625C21.25 20 22.375 21.125 23.75 21.125H27.5" stroke="#007566" stroke-width="1.5" stroke-linecap="round" stroke-linejoin="round"/>
<path d="M7.25196 27.25C9.46446 27.25 11.252 25.4625 11.252 23.25C11.252 21.0375 9.46446 19.25 7.25196 19.25C5.03946 19.25 3.25195 21.0375 3.25195 23.25C3.25195 25.4625 5.03946 27.25 7.25196 27.25Z" stroke="#007566" stroke-width="1.5" stroke-linecap="round" stroke-linejoin="round"/>
<path d="M2.5 28L3.75 26.75" stroke="#007566" stroke-width="1.5" stroke-linecap="round" stroke-linejoin="round"/>
</svg>
